<svg width="32" height="32" viewBox="0 0 32 32" fill="none" xmlns="http://www.w3.org/2000/svg">
  <!-- Kubernetes blue background -->
  <rect width="32" height="32" rx="4" fill="#326ce5"/>
  
  <!-- Kubernetes helm/wheel -->
  <g transform="translate(16, 16)">
    <!-- Outer circle -->
    <circle r="14" fill="none" stroke="white" stroke-width="2"/>
    
    <!-- Inner hub -->
    <circle r="4" fill="white"/>
    
    <!-- Helm spokes -->
    <g stroke="white" stroke-width="2" stroke-linecap="round">
      <line x1="0" y1="-14" x2="0" y2="-4"/>
      <line x1="0" y1="14" x2="0" y2="4"/>
      <line x1="-14" y1="0" x2="-4" y2="0"/>
      <line x1="14" y1="0" x2="4" y2="0"/>
      <line x1="-10" y1="-10" x2="-2.8" y2="-2.8"/>
      <line x1="10" y1="-10" x2="2.8" y2="-2.8"/>
      <line x1="-10" y1="10" x2="-2.8" y2="2.8"/>
      <line x1="10" y1="10" x2="2.8" y2="2.8"/>
    </g>
    
    <!-- Center dot -->
    <circle r="1.5" fill="#326ce5"/>
  </g>
  
  <!-- Kubernetes pods/containers -->
  <rect x="4" y="22" width="3" height="6" rx="0.5" fill="white" opacity="0.8"/>
  <rect x="8" y="20" width="3" height="8" rx="0.5" fill="white" opacity="0.8"/>
  <rect x="12" y="21" width="3" height="7" rx="0.5" fill="white" opacity="0.8"/>
  <rect x="16" y="19" width="3" height="9" rx="0.5" fill="white" opacity="0.8"/>
  <rect x="20" y="20" width="3" height="8" rx="0.5" fill="white" opacity="0.8"/>
  
  <!-- Small K8s text -->
  <text x="16" y="30" font-family="Arial, sans-serif" font-size="3" fill="white" font-weight="bold" text-anchor="middle">K8S</text>
</svg>
